<?xml version="1.0" standalone="no"?>
<!DOCTYPE svg PUBLIC "-//W3C//DTD SVG 20010904//EN"
 "http://www.w3.org/TR/2001/REC-SVG-20010904/DTD/svg10.dtd">
<svg version="1.0" xmlns="http://www.w3.org/2000/svg"
 width="808.000000pt" height="1280.000000pt" viewBox="0 0 808.000000 1280.000000"
 preserveAspectRatio="xMidYMid meet">
<g transform="translate(0.000000,1280.000000) scale(0.100000,-0.100000)"
fill="#fff" stroke="none">
<path d="M807 12790 c-359 -65 -682 -350 -779 -687 -32 -111 -32 -311 1 -433
120 -450 525 -931 1224 -1456 520 -390 1201 -779 1742 -996 55 -22 104 -43
108 -48 5 -4 -17 -43 -48 -86 -252 -351 -400 -816 -422 -1322 l-6 -153 -68
-44 c-89 -60 -214 -194 -266 -286 -49 -86 -97 -224 -113 -324 -16 -99 -14
-294 5 -400 89 -506 489 -966 973 -1119 71 -22 134 -35 251 -52 l34 -5 -54
-36 c-147 -98 -303 -250 -396 -384 -99 -145 -186 -346 -214 -501 l-12 -68 -41
8 c-23 4 -102 6 -176 6 -157 -2 -248 -21 -369 -81 -111 -54 -241 -187 -299
-303 -106 -214 -134 -465 -86 -755 106 -640 553 -1235 1151 -1532 62 -31 111
-58 109 -60 -2 -2 -50 1 -106 7 -275 28 -592 -3 -835 -81 -132 -43 -298 -129
-391 -203 -205 -162 -308 -375 -276 -568 76 -449 720 -683 1658 -602 113 10
189 12 193 7 16 -24 122 -98 185 -130 38 -19 113 -47 165 -61 88 -24 113 -26
291 -26 180 0 203 2 294 27 207 56 359 160 428 294 20 37 39 82 42 98 6 29 9
30 61 30 l54 0 11 -48 c39 -181 202 -328 435 -388 77 -21 112 -24 250 -23 138
1 173 5 256 27 140 37 241 89 319 165 l65 63 130 -16 c465 -54 792 -46 1105
30 155 37 287 93 385 163 29 21 51 30 53 23 8 -23 32 -11 32 17 0 19 11 39 36
63 50 48 95 123 121 199 l22 65 7 -42 c4 -27 12 -43 20 -43 17 0 17 -3 0 78
-8 37 -17 96 -21 132 -28 292 -232 547 -586 734 -243 128 -548 200 -897 213
l-163 6 104 42 c324 130 602 344 807 620 175 236 280 466 342 750 19 86 22
130 22 315 0 188 -3 225 -21 290 -62 221 -149 357 -290 454 -176 120 -426 139
-693 52 -47 -15 -73 -19 -75 -12 -57 209 -93 300 -171 433 -135 229 -363 448
-613 586 l-64 35 34 18 c55 28 199 127 273 188 56 46 75 56 106 56 53 0 212
42 303 80 339 141 644 482 772 864 70 209 93 452 61 646 -49 288 -186 518
-393 658 -53 36 -63 48 -69 80 -3 20 -10 54 -14 75 -7 35 -6 37 16 37 34 0 31
28 -3 32 -23 2 -29 10 -36 43 -55 250 -182 549 -318 753 -88 130 -139 192
-253 309 l-109 113 54 59 c30 33 103 113 163 178 217 234 492 581 670 845 l78
116 87 -62 c222 -161 376 -254 471 -286 81 -27 203 -25 264 5 53 25 103 78
129 134 21 44 22 58 21 361 -1 324 -10 473 -45 715 -102 708 -394 1129 -872
1254 -137 36 -228 44 -425 38 -198 -5 -309 -21 -538 -77 -234 -58 -373 -136
-540 -304 -279 -282 -447 -705 -516 -1301 -16 -142 -16 -643 0 -795 7 -63 22
-175 32 -248 11 -74 20 -139 20 -146 0 -9 -28 -7 -107 8 -134 24 -528 29 -658
8 -103 -17 -305 -66 -371 -91 l-52 -18 -37 86 c-146 341 -455 850 -775 1276
-684 911 -1396 1494 -1980 1621 -87 18 -313 27 -383 14z"/>
</g>
</svg>
